<?xml version="1.0" encoding="UTF-8"?>
<!DOCTYPE svg PUBLIC "-//W3C//DTD SVG 1.1//EN" "http://www.w3.org/Graphics/SVG/1.1/DTD/svg11.dtd">
<!-- Creator: CorelDRAW 2020 (64-Bit) -->
<svg xmlns="http://www.w3.org/2000/svg" xml:space="preserve" width="38.7259mm" height="38.7259mm" version="1.1" style="shape-rendering:geometricPrecision; text-rendering:geometricPrecision; image-rendering:optimizeQuality; fill-rule:evenodd; clip-rule:evenodd"
viewBox="0 0 226.36 226.36"
 xmlns:xlink="http://www.w3.org/1999/xlink"
 xmlns:xodm="http://www.corel.com/coreldraw/odm/2003">
 <defs>
  <style type="text/css">
   <![CDATA[
    .fil0 {fill:#780EA7}
    .fil1 {fill:#FEFEFE;fill-rule:nonzero}
   ]]>
  </style>
 </defs>
 <g id="Capa_x0020_1">
  <metadata id="CorelCorpID_0Corel-Layer"/>
  <g id="_1550641011056">
   <circle class="fil0" cx="113.18" cy="113.18" r="113.18"/>
   <path class="fil1" d="M75.67 173.43l0 -10.46 39.23 -42.94c4.6,-5.04 8.39,-9.43 11.39,-13.16 2.97,-3.73 5.18,-7.25 6.65,-10.57 1.44,-3.3 2.18,-6.78 2.18,-10.41 0,-4.17 -1.01,-7.79 -3,-10.87 -1.99,-3.05 -4.71,-5.39 -8.17,-7.06 -3.43,-1.69 -7.3,-2.51 -11.61,-2.51 -4.55,0 -8.53,0.93 -11.93,2.81 -3.38,1.88 -5.99,4.5 -7.82,7.87 -1.85,3.38 -2.75,7.3 -2.75,11.85l-13.7 0c0,-6.97 1.61,-13.08 4.82,-18.36 3.19,-5.26 7.57,-9.35 13.13,-12.29 5.56,-2.94 11.8,-4.41 18.72,-4.41 6.97,0 13.16,1.47 18.53,4.41 5.37,2.94 9.59,6.89 12.67,11.88 3.05,5.01 4.58,10.57 4.58,16.67 0,4.36 -0.79,8.64 -2.34,12.81 -1.58,4.14 -4.28,8.77 -8.15,13.87 -3.84,5.09 -9.18,11.28 -15.99,18.61l-26.7 28.55 0 0.93 55.28 0 0 12.78 -75.01 0z"/>
  </g>
 </g>
</svg>
