<?xml version="1.0" encoding="UTF-8"?>
<!DOCTYPE svg PUBLIC "-//W3C//DTD SVG 1.1//EN" "http://www.w3.org/Graphics/SVG/1.1/DTD/svg11.dtd">
<!-- Creator: CorelDRAW 2020 (64-Bit) -->
<svg xmlns="http://www.w3.org/2000/svg" xml:space="preserve" width="38.7259mm" height="38.7259mm" version="1.1" style="shape-rendering:geometricPrecision; text-rendering:geometricPrecision; image-rendering:optimizeQuality; fill-rule:evenodd; clip-rule:evenodd"
viewBox="0 0 1964.9 1964.9"
 xmlns:xlink="http://www.w3.org/1999/xlink"
 xmlns:xodm="http://www.corel.com/coreldraw/odm/2003">
 <defs>
  <style type="text/css">
   <![CDATA[
    .fil0 {fill:#381B80}
    .fil1 {fill:#FEFEFE;fill-rule:nonzero}
   ]]>
  </style>
 </defs>
 <g id="Capa_x0020_1">
  <metadata id="CorelCorpID_0Corel-Layer"/>
  <g id="_2283123198912">
   <circle class="fil0" cx="982.45" cy="982.45" r="982.45"/>
   <path class="fil1" d="M656.9 1505.47l0 -90.82 340.56 -372.73c39.97,-43.75 72.84,-81.83 98.86,-114.23 25.78,-32.4 44.93,-62.91 57.71,-91.76 12.53,-28.62 18.92,-58.89 18.92,-90.35 0,-36.18 -8.75,-67.64 -26.02,-94.36 -17.26,-26.49 -40.91,-46.83 -70.95,-61.25 -29.8,-14.66 -63.38,-21.76 -100.75,-21.76 -39.49,0 -74.02,8.04 -103.58,24.36 -29.33,16.32 -52.03,39.02 -67.88,68.35 -16.08,29.33 -23.89,63.38 -23.89,102.88l-118.96 0c0,-60.54 13.95,-113.52 41.86,-159.4 27.67,-45.64 65.75,-81.12 113.99,-106.66 48.25,-25.54 102.41,-38.31 162.48,-38.31 60.54,0 114.23,12.77 160.82,38.31 46.59,25.54 83.25,59.84 109.97,103.12 26.49,43.52 39.73,91.76 39.73,144.74 0,37.84 -6.86,74.97 -20.34,111.16 -13.71,35.95 -37.13,76.15 -70.71,120.38 -33.35,44.22 -79.7,97.91 -138.83,161.53l-231.77 247.85 0 8.04 479.86 0 0 110.92 -651.09 0z"/>
  </g>
 </g>
</svg>
