<?xml version="1.0" encoding="UTF-8"?>
<!DOCTYPE svg PUBLIC "-//W3C//DTD SVG 1.1//EN" "http://www.w3.org/Graphics/SVG/1.1/DTD/svg11.dtd">
<!-- Creator: CorelDRAW 2020 (64-Bit) -->
<svg xmlns="http://www.w3.org/2000/svg" xml:space="preserve" width="38.7259mm" height="38.7259mm" version="1.1" style="shape-rendering:geometricPrecision; text-rendering:geometricPrecision; image-rendering:optimizeQuality; fill-rule:evenodd; clip-rule:evenodd"
viewBox="0 0 921.1 921.1"
 xmlns:xlink="http://www.w3.org/1999/xlink"
 xmlns:xodm="http://www.corel.com/coreldraw/odm/2003">
 <defs>
  <style type="text/css">
   <![CDATA[
    .fil0 {fill:#381B80}
    .fil1 {fill:#FEFEFE;fill-rule:nonzero}
   ]]>
  </style>
 </defs>
 <g id="Capa_x0020_1">
  <metadata id="CorelCorpID_0Corel-Layer"/>
  <g id="_2283123766416">
   <circle class="fil0" cx="460.55" cy="460.55" r="460.55"/>
   <path class="fil1" d="M460.99 709.05c-31.15,0 -58.87,-5.43 -83.26,-16.08 -24.28,-10.75 -43.57,-25.61 -57.87,-44.79 -14.19,-19.18 -21.95,-41.35 -23.28,-66.74l59.53 0c1.22,15.63 6.65,29.05 16.08,40.24 9.42,11.31 21.84,19.96 37.14,26.16 15.19,6.1 32.15,9.2 50.78,9.2 20.73,0 39.14,-3.66 55.21,-10.86 16.08,-7.21 28.72,-17.29 37.81,-30.27 9.09,-12.86 13.75,-27.83 13.75,-44.9 0,-17.74 -4.44,-33.48 -13.31,-47.12 -8.76,-13.64 -21.73,-24.28 -38.69,-31.93 -16.96,-7.76 -37.81,-11.64 -62.42,-11.64l-38.69 0 0 -52 38.69 0c19.29,0 36.14,-3.44 50.66,-10.31 14.63,-6.99 26.05,-16.74 34.26,-29.38 8.32,-12.53 12.42,-27.38 12.42,-44.34 0,-16.41 -3.55,-30.6 -10.86,-42.79 -7.21,-12.09 -17.41,-21.51 -30.6,-28.27 -13.08,-6.87 -28.6,-10.2 -46.34,-10.2 -16.74,0 -32.48,2.99 -47.12,9.09 -14.74,6.1 -26.83,14.74 -36.03,26.16 -9.31,11.42 -14.41,25.17 -15.19,41.24l-56.65 0c0.89,-25.28 8.54,-47.56 22.95,-66.74 14.3,-19.07 33.04,-34.03 56.32,-44.68 23.17,-10.75 48.78,-16.08 76.61,-16.08 29.93,0 55.65,5.99 77.05,18.07 21.4,11.97 37.81,27.83 49.33,47.56 11.53,19.73 17.3,40.91 17.3,63.75 0,27.27 -7.21,50.56 -21.4,69.74 -14.3,19.18 -33.59,32.48 -57.98,39.91l0 3.77c30.49,4.99 54.32,17.96 71.51,38.91 17.18,20.84 25.83,46.56 25.83,77.27 0,26.39 -7.21,49.89 -21.4,70.73 -14.3,20.95 -33.7,37.36 -58.2,49.33 -24.61,11.97 -52.55,17.96 -83.93,17.96z"/>
  </g>
 </g>
</svg>
