<?xml version="1.0" encoding="UTF-8"?>
<!DOCTYPE svg PUBLIC "-//W3C//DTD SVG 1.1//EN" "http://www.w3.org/Graphics/SVG/1.1/DTD/svg11.dtd">
<!-- Creator: CorelDRAW 2020 (64-Bit) -->
<svg xmlns="http://www.w3.org/2000/svg" xml:space="preserve" width="38.7259mm" height="38.7259mm" version="1.1" style="shape-rendering:geometricPrecision; text-rendering:geometricPrecision; image-rendering:optimizeQuality; fill-rule:evenodd; clip-rule:evenodd"
viewBox="0 0 200.22 200.22"
 xmlns:xlink="http://www.w3.org/1999/xlink"
 xmlns:xodm="http://www.corel.com/coreldraw/odm/2003">
 <defs>
  <style type="text/css">
   <![CDATA[
    .fil0 {fill:#780EA7}
    .fil1 {fill:#FEFEFE;fill-rule:nonzero}
   ]]>
  </style>
 </defs>
 <g id="Capa_x0020_1">
  <metadata id="CorelCorpID_0Corel-Layer"/>
  <g id="_1550633125760">
   <circle class="fil0" cx="100.11" cy="100.11" r="100.11"/>
   <path class="fil1" d="M100.21 154.13c-6.77,0 -12.8,-1.18 -18.1,-3.49 -5.28,-2.34 -9.47,-5.57 -12.58,-9.74 -3.08,-4.17 -4.77,-8.99 -5.06,-14.51l12.94 0c0.27,3.4 1.45,6.31 3.49,8.75 2.05,2.46 4.75,4.34 8.07,5.69 3.3,1.33 6.99,2 11.04,2 4.51,0 8.51,-0.8 12,-2.36 3.49,-1.57 6.24,-3.76 8.22,-6.58 1.98,-2.8 2.99,-6.05 2.99,-9.76 0,-3.86 -0.96,-7.28 -2.89,-10.24 -1.9,-2.96 -4.72,-5.28 -8.41,-6.94 -3.69,-1.69 -8.22,-2.53 -13.57,-2.53l-8.41 0 0 -11.3 8.41 0c4.19,0 7.86,-0.75 11.01,-2.24 3.18,-1.52 5.66,-3.64 7.45,-6.39 1.81,-2.72 2.7,-5.95 2.7,-9.64 0,-3.57 -0.77,-6.65 -2.36,-9.3 -1.57,-2.63 -3.78,-4.68 -6.65,-6.15 -2.84,-1.49 -6.22,-2.22 -10.07,-2.22 -3.64,0 -7.06,0.65 -10.24,1.98 -3.2,1.33 -5.83,3.2 -7.83,5.69 -2.02,2.48 -3.13,5.47 -3.3,8.97l-12.31 0c0.19,-5.49 1.86,-10.34 4.99,-14.51 3.11,-4.14 7.18,-7.4 12.24,-9.71 5.04,-2.34 10.6,-3.49 16.65,-3.49 6.51,0 12.1,1.3 16.75,3.93 4.65,2.6 8.22,6.05 10.72,10.34 2.51,4.29 3.76,8.89 3.76,13.86 0,5.93 -1.57,10.99 -4.65,15.16 -3.11,4.17 -7.3,7.06 -12.6,8.68l0 0.82c6.63,1.08 11.81,3.9 15.54,8.46 3.74,4.53 5.62,10.12 5.62,16.8 0,5.74 -1.57,10.84 -4.65,15.38 -3.11,4.55 -7.33,8.12 -12.65,10.72 -5.35,2.6 -11.42,3.9 -18.24,3.9z"/>
  </g>
 </g>
</svg>
